<svg id="Capa_1" enable-background="new 0 0 512 512" height="30" viewBox="0 0 512 512" width="35" xmlns="http://www.w3.org/2000/svg" xmlns:xlink="http://www.w3.org/1999/xlink"><linearGradient id="SVGID_1_" gradientUnits="userSpaceOnUse" x1="256" x2="256" y1="451" y2="61"><stop offset="0" stop-color="#fd3a84"/><stop offset="1" stop-color="#ffa68d"/></linearGradient><g><g><g><path d="m504.68 333.115-53.68-31.994v-225.121c0-8.369-6.904-15-15-15h-420.947c-8.416.029-15.053 6.75-15.053 15v270c0 8.284 6.716 15 15 15h196v15c0 8.284 6.716 15 15 15h105v45c0 5.396 2.898 10.376 7.591 13.042 4.688 2.665 10.454 2.607 15.089-.157l151-90c4.539-2.706 7.32-7.6 7.32-12.885s-2.781-10.179-7.32-12.885zm-115.487-242.115-163.214 116.581-163.99-116.581zm-178.193 225v15h-181v-225.933l187.309 133.158c5.215 3.706 12.205 3.698 17.41-.02l186.281-133.057v178.092l-67.32-40.125c-4.637-2.764-10.397-2.822-15.089-.157-4.693 2.665-7.591 7.646-7.591 13.042v45h-105c-8.284 0-15 6.716-15 15zm150 93.597v-33.597c0-8.284-6.716-15-15-15h-105v-30h105c8.284 0 15-6.716 15-15v-33.597c2.264 1.365 96.746 57.663 106.702 63.597z" fill="url(#SVGID_1_)"/></g></g></g></svg>